/* XPM */
static char *_2c0e0439f954f8abf5d21303eeb2a37W5u94nGrH4XGZAeb[] = {
/* columns rows colors chars-per-pixel */
"64 64 255 2 ",
"   c None",
".  c black",
"X  c #010000",
"o  c #010101",
"O  c #020101",
"+  c #020202",
"@  c gray1",
"#  c #040202",
"$  c #040404",
"%  c gray2",
"&  c #060606",
"*  c #070707",
"=  c gray3",
"-  c #090909",
";  c gray4",
":  c #0B0B0B",
">  c #0C0C0C",
",  c gray5",
"<  c #0E0E0E",
"1  c gray6",
"2  c #120909",
"3  c #140A0A",
"4  c #150A0A",
"5  c #170C0C",
"6  c #101010",
"7  c #111111",
"8  c gray7",
"9  c #131313",
"0  c gray8",
"q  c #151515",
"w  c #161616",
"e  c gray9",
"r  c #191919",
"t  c gray10",
"y  c gray11",
"u  c #1D1D1D",
"i  c #1E1E1E",
"p  c gray12",
"a  c #261313",
"s  c #2C1616",
"d  c #341A1A",
"f  c #351B1B",
"g  c #202020",
"h  c gray13",
"j  c #222222",
"k  c #232323",
"l  c gray14",
"z  c #252525",
"x  c gray15",
"c  c #272727",
"v  c #282828",
"b  c #2A2A2A",
"n  c gray17",
"m  c #2C2C2C",
"M  c gray18",
"N  c #2F2F2F",
"B  c gray19",
"V  c #313131",
"C  c #323232",
"Z  c gray20",
"A  c #343434",
"S  c gray21",
"D  c #373737",
"F  c gray22",
"G  c #393939",
"H  c #3A3A3A",
"J  c gray23",
"K  c #3C3C3C",
"L  c gray24",
"P  c #3E3E3E",
"I  c #422121",
"U  c #432121",
"Y  c #482424",
"T  c #4D2727",
"R  c #4F2828",
"E  c #552D2D",
"W  c #443535",
"Q  c #4E3D3D",
"!  c #5A3030",
"~  c #743A3A",
"^  c #793D3D",
"/  c gray25",
"(  c #414141",
")  c gray26",
"_  c #434343",
"`  c #444444",
"'  c #464646",
"]  c gray28",
"[  c #484848",
"{  c #494949",
"}  c gray29",
"|  c #4B4B4B",
" . c #4C4C4C",
".. c gray31",
"X. c #505050",
"o. c gray32",
"O. c #535353",
"+. c gray33",
"@. c #565656",
"#. c gray34",
"$. c gray35",
"%. c #5A5A5A",
"&. c #5B5B5B",
"*. c #5C5B5B",
"=. c #5D5B5B",
"-. c gray36",
";. c #5D5D5D",
":. c #5F5F5F",
">. c #606060",
",. c gray38",
"<. c #626262",
"1. c gray39",
"2. c #646464",
"3. c #656565",
"4. c gray40",
"5. c #676767",
"6. c #686868",
"7. c DimGray",
"8. c gray42",
"9. c #6D6D6D",
"0. c gray43",
"q. c #6F6F6F",
"w. c gray44",
"e. c #717171",
"r. c #727272",
"t. c gray45",
"y. c #747474",
"u. c #767676",
"i. c #777777",
"p. c gray47",
"a. c #797979",
"s. c gray48",
"d. c #7B7B7B",
"f. c #7C7C7C",
"g. c gray49",
"h. c #7E7E7E",
"j. c #964B4B",
"k. c #984C4C",
"l. c #AE5858",
"z. c #B15959",
"x. c #B35A5A",
"c. c #B45A5A",
"v. c #B75C5C",
"b. c #B85C5C",
"n. c #8B6363",
"m. c #966B6B",
"M. c #D56B6B",
"N. c #DA6E6E",
"B. c #E67373",
"V. c #E87575",
"C. c #EA7676",
"Z. c #EB7676",
"A. c #EE7878",
"S. c #EF7878",
"D. c #EE7979",
"F. c #EF7979",
"G. c #808080",
"H. c #818181",
"J. c gray51",
"K. c #838383",
"L. c #868686",
"P. c gray54",
"I. c #8B8B8B",
"U. c gray55",
"Y. c #8D8D8D",
"T. c #8E8E8E",
"R. c gray56",
"E. c #909090",
"W. c gray57",
"Q. c #929292",
"!. c #939393",
"~. c gray58",
"^. c #959595",
"/. c gray59",
"(. c #979797",
"). c #989898",
"_. c gray60",
"`. c #9A9A9A",
"'. c #9B9B9B",
"]. c gray61",
"[. c #9D9D9D",
"{. c gray62",
"}. c #9F9F9F",
"|. c #A0A0A0",
" X c gray63",
".X c #A2A2A2",
"XX c gray64",
"oX c #A4A4A4",
"OX c #A5A5A5",
"+X c gray65",
"@X c #A7A7A7",
"#X c gray66",
"$X c #A9A9A9",
"%X c #AAAAAA",
"&X c gray67",
"*X c #ACACAC",
"=X c gray68",
"-X c #AEAEAE",
";X c #AFAFAF",
":X c gray69",
">X c #B1B1B1",
",X c #B2B2B2",
"<X c gray70",
"1X c #B4B4B4",
"2X c gray71",
"3X c #B6B6B6",
"4X c gray72",
"5X c #B9B9B9",
"6X c gray73",
"7X c #BBBBBB",
"8X c #BCBCBC",
"9X c gray74",
"0X c gray",
"qX c gray75",
"wX c #DB9898",
"eX c #DB9999",
"rX c #E98383",
"tX c #EA8282",
"yX c #E39191",
"uX c #E39292",
"iX c #DBA1A1",
"pX c #DAA2A2",
"aX c #DBA2A2",
"sX c #DCA0A0",
"dX c #DDA0A0",
"fX c #DCA1A1",
"gX c #DAA4A4",
"hX c #DBA4A4",
"jX c #DAA5A5",
"kX c #D9A6A6",
"lX c #D8A7A7",
"zX c #D9A7A7",
"xX c #DAA6A6",
"cX c #D7AAAA",
"vX c #D6ABAB",
"bX c #D7ABAB",
"nX c #D6ACAC",
"mX c #CFBCBC",
"MX c #D4B3B3",
"NX c #D3B4B4",
"BX c #D2B5B5",
"VX c #D2B6B6",
"CX c #C0C0C0",
"ZX c #C1C1C1",
"AX c gray76",
"SX c #C3C3C3",
"DX c gray77",
"FX c #C5C5C5",
"GX c #C6C6C6",
"HX c gray78",
"JX c #C8C5C5",
"KX c #CAC6C6",
"LX c #CAC7C7",
"PX c #C8C8C8",
"IX c gray79",
/* pixels */
"              . . .                                                                                         . . .               ",
"            . . . . . .                                                                                 . . . . . .             ",
"            . . . . . . . .                                                                         . . . . . . . .             ",
"          . . . . . . & . . . .                                                                 . . . . & . . . . . .           ",
"          . . ' A . . 8 L : . . .                                                             . . . : L 8 . . A ' . .           ",
"          . . R.SX) . . e 8.B . . . .                                                     . . . . B 8.e . . { DXR.. .           ",
"        . . : SXIXKX! . . u a.%.1 . . .                                                 . . . 8 %.a.u . . E KXIXSX: . .         ",
"        . . ) IXIXBXC.Y . . N f.r.u . . .                                             . . . k r.f.N . . T C.BXIXIXL . .         ",
"        . . r.IXIXaXS.B.f . . ' f.a.B . . .                                         . . . B a.f.' . . f C.S.zXIXIXr.. .         ",
"        . . {.IXIXyXS.S.N.5 . & 3.f.f.) . . .                                     . . . ) f.f.3.& . 3 M.S.S.yXIXIX`.. .         ",
"      . . & DXIXIXtXS.S.S.z.. . e a.f.f.L . . .                                 . . . ) f.f.a.e . # z.S.S.S.tXIXIXSX. . .       ",
"      . . k IXIXKXS.S.S.S.S.~ . . ) f.f.f.N . . .   . . . . . . . . . . . .   . . . B f.f.f.) . . ^ S.S.S.S.S.KXIXIXk . .       ",
"      . . ) IXIXmXS.S.S.S.S.C.a . & q.f.a.@.. . . . . . . . . . . . . . . . . . . . @.a.f.q.& . s C.S.S.S.S.S.mXIXIX) . .       ",
"      . . :.IXIXMXS.S.S.S.S.S.l.. . v ) 8 . . . . . 8 B ' 3.R.`.`.R.3.' B 8 . . . . . 8 ) v . . b.S.S.S.S.S.S.BXIXIX@.. .       ",
"      . . r.IXIXvXS.S.S.S.S.S.S.T . . . . . & B :.J.W.W.W.+XIXIXIXIX+XW.W.W.J.:.B & . . . . . R S.S.S.S.S.S.S.nXIXIXq.. .       ",
"      . . J.IXIXzXS.S.S.S.S.S.k.3 . . . z f.8X8XW.W.W.W.W.&XIXIXIXIX&XW.W.W.W.W.8X8Xf.z . . . 2 j.S.S.S.S.S.S.zXIXIXJ.. .       ",
"      . . W.IXIXzXS.S.S.S.B.U . . . k q.IXIXIXIX{.W.W.W.W.-XIXIXIXIX-XW.W.W.W.{.IXIXIXIXq.k . . . U B.S.S.S.S.zXIXIXR.. .       ",
"      . . (.IXIXaXS.S.S.S.c.. . 1 %.W.W.8XIXIXIX2XW.W.W.W.,XIXIXIXIX,XW.W.W.W.2XIXIXIX8XW.W.%.1 . . v.S.S.S.S.zXIXIXW.. .       ",
"      . . `.IXIXfXS.S.S.S.eX*.:.R.W.W.W.-XIXIXIXIX(.W.W.W.4XIXIXIXIX4XW.W.W.(.DXIXIXIX-XW.W.W.R.%.*.eXS.S.S.S.aXIXIX(.. .       ",
"      . . `.IXIXfXS.S.S.zXIXIXIXSX`.W.W.{.IXIXIXIX-XW.W.W.8XIXIXIXIX8XW.W.W.-XIXIXIXIX`.W.W.(.SXIXIXIXzXS.S.S.fXIXIX`.. .       ",
"      . . W.IXIXaXS.S.vXIXIXIXIXIXSX`.W.W.SXIXIXIXDXW.W.W.SXIXIXIXIXSXW.W.W.DXIXIXIXDXW.W.`.SXIXIXIXIXIXvXS.S.aXIXIX(.. .       ",
"      . . I.IXIXzXS.zXIXIXIXIXIXIXIXSX`.W.,XIXIXIXIX+XW.W.DXIXIXIXIXDXW.W.&XIXIXIXIX,XW.`.SXIXIXIXIXIXIXIXzXS.zXIXIXI.. .       ",
"      . . u.IX-XW n.IXIXIXIXIXIXIXIXIXSX`.-XIXIXIXIX8XW.W.IXIXIXIXIXIXW.W.8XIXIXIXIX-X`.SXIXIXIXIXIXIXIXIXIXm.Q -XIXf.. .       ",
"      . . >.8Xu . e IXIXIXIXIXIXIXIXIXIXIXIXIXIXIXIXIX|.`.IXIXIXIXIXIX(.|.IXIXIXIXIXIXIXIXIXIXIXIXIXIXIXIXIXr . u 4X3.. .       ",
"      . . ' A . . 8.IXIXIXIXIXIXIXIXIXIXIXIXIXIXIXIXIXSX8XIXIXIXIXIXIX8XSXIXIXIXIXIXIXIXIXIXIXIXIXIXIXIXIXIX3.. . A { . .       ",
"      . . . . . ' IXIXIXIXIXIXIXIXIXIXIXIXIXIXIXIXIXIXIXIXIXIXIXIXIXIXIXIXIXIXIXIXIXIXIXIXIXIXIXIXIXIXIXIXIXIX) . . . . .       ",
"      . . . . z SXIXIXIXIXIXIXIXIXIXIXIXIXIXIXIXIXIXIXIXIXIXIXIXIXIXIXIXIXIXIXIXIXIXIXIXIXIXIXIXIXIXIXIXIXIXIXSXv . . . .       ",
"        . . e 2XIXIXIXIXIXIXIXIXIXIXIXIXIXIXIXIXIXIXIXIXIXIXIXIXIXIXIXIXIXIXIXIXIXIXIXIXIXIXIXIXIXIXIXIXIXIXIXIX,Xe . .         ",
"      . . & {.IXIXIXIXIXIXIXIXIXIXIXIXIXIXIXIXIXIXIXIXIXIXIXIXIXIXIXIXIXIXIXIXIXIXIXIXIXIXIXIXIXIXIXIXIXIXIXIXIXIX|.: . .       ",
"    . . . J.IXIXIXIXIXIXIXIXIXIXIXIXDX|.4XIXIXIXIXIXIXIXIXIXIXIXIXIXIXIXIXIXIXIXIXIXIX4X&XDXIXIXIXIXIXIXIXIXIXIXIXIXL.. . .     ",
"  . . . >.IXIXIXIXIXIXIXIXIXIXIXIXI.1 . . { SXIXIXIXIXIXIXIXIXIXIXIXIXIXIXIXIXIXIXSX{ . . 8 R.IXIXIXIXIXIXIXIXIXIXIXIX:.. . .   ",
". . . ) DXIXIXIXIXIXIXIXIXIXIXIX&X& . . . . %.IXIXIXIXIXIXIXIXIXIXIXIXIXIXIXIXIXIX%.. . . . : -XIXIXIXIXIXIXIXIXIXIXIXDXL . . . ",
". . z SXIXIXIXIXIXIXIXIXIXIXIXIX3.. . . . . e IXIXIXIXIXIXIXIXIXIXIXIXIXIXIXIXIXIX8 . . . . . q.IXIXIXIXIXIXIXIXIXIXIXIXSXz . . ",
". . :.IXIXIXIXIXIXIXIXIXIXIXIXIX>.. . . . . e IXIXIXIXIXIXIXIXIXIXIXIXIXIXIXIXIXIX1 . . . . . 3.IXIXIXIXIXIXIXIXIXIXIXIXIX%.. . ",
". . ..IXIXIXIXIXIXIXIXIXIXIXIXIX|.. . . . . X.IXIXIXIXIXIXIXIXIXIXIXIXIXIXIXIXIXIX... . . . . |.IXIXIXIXIXIXIXIXIXIXIXIXIX... . ",
". . ) IXIXIXIXIXDXIXIXIXIXIXIXIXIXr.& . . A 8XIXIXIXIXIXIXIXIXIXIXIXIXIXIXIXIXIXIX8XB . . & r.IXIXIXIXIXIXIXIXDXIXIXIXIXIXL . . ",
". . B IXIXDX-X`.W.DXIXIXSX4XIXIXIXIX2XR.+XIXIXIXIXIXIXIX&Xa.:.@.@.:.a.&XIXIXIXIXIXIXIX{.I.2XIXIXIXIX4XSXIXIXDXW.`.-XDXIXIXN . . ",
". . k 2X|.W.W.W.&XIXIXSXe . 1 v { q.SXIXIXIXIXIXIXIXIX@.. . . . . . . . @.IXIXIXIXIXIXIXIX8Xq.{ N 1 . r SXIXIX&XW.W.W.{.,Xu . . ",
". . & R.W.W.W.{.IXIXIX4X& . . . . . 8.IXIXIXIXIXIXIX(.. . . . . . . . . . (.IXIXIXIXIXIXIX>.. . . . . & 8XIXIXIX{.W.W.W.R.& . . ",
"  . . a.W.W.(.DXIXIXIXIX|.q.X.B 8 : W.IXIXIXIXIXIXIXJ.. . . . . . . . . . J.IXIXIXIXIXIXIXW.& 8 B X.q.+XIXIXIXIXDX(.W.W.a.. .   ",
"  . . :.W.W.4XIXIXIXIXIXIXIXIXIXIXIXIXIXIXIXIXIXIXIX4X1 . . . . . . . . 1 4XIXIXIXIXIXIXIXIXIXIXIXIXIXIXIXIXIXIXIX8XW.W.%.. .   ",
"  . . F W.-XIXIXIXIXIXIXIXIXIXIXIXIXIXIXIXIXIXIXIXIXIX(.: . . . . . . : (.IXIXIXIXIXIXIXIXIXIXIXIXIXIXIXIXIXIXIXIXIX-XW.A . .   ",
"  . . 1 |.IXIXIXIXIXIXIXIXDX&Xf.X.A W.IXIXIXIXIXIXIXIXIX&Xz . . . . z &XIXIXIXIXIXIXIXIXIXR.A X.f.&XIXIXIXIXIXIXIXIXIX|.1 . .   ",
"    . . W.IXIXIXIXIXIXIX>.1 . . . . L IXIXIXIXIXIXIXIXIXIXDX>.. . >.DXIXIXIXIXIXIXIXIXIXIXF . . . . 1 >.IXIXIXIXIXIXIXR.. .     ",
"    . . ' DXIXIXIXIXIXIX8 . . . : B `.IXSXDXIXIXIXIXIXIXIXIX(.. . (.IXIXIXIXIXIXIXIXDXSXIX(.B : . . . 8 IXIXIXIXIXIXDX' . .     ",
"    . . : -XIXIXIXDX2X|.f.@.u.|.DXIXIX(.& B IXIXIXIXIXIXIXIX(.. . (.IXIXIXIXIXIXIX8Xe 1 2XIXIXDX|.u.@.f.|.2XDXIXIXIX-X& . .     ",
"      . . %.SX4X+X(.W.W.8XIXIXIXIXIXIXr.. . 2XIXIXIXIXSXW.:.v . . N 3.`.DXIXIXIXIXR.. . (.IXIXIXIXIXIX8XW.W.(.+X4XSX@.. .       ",
"      . . : I.W.W.W.W.-XIXIXIXIXIXIXIX`.. . { W.a.:.B & . . . . . . . . : F 3.J.W.B . & 4XIXIXIXIXIXIXIX-XW.W.W.W.I.: . .       ",
"        . . F W.W.W.|.IXIXIXIXIXIXIXIXDXN . . . . . . . . . k L L u . . . . . . . . . X.IXIXIXIXIXIXIXIXIX|.W.W.W.F . .         ",
"        . . . 8.W.`.DXIXIXIXIXIXIXIXIXIX2XN . . . & z %.R.8XIXIXIXIX2XJ.X.u . . . . ' SXIXIXIXIXIXIXIXIXIXDX`.W.8.. . .         ",
"          . . : J.,XIXIXIXIXIXIXIXIXIXIXIXIX-X`.,XDXIXIXIXIXIXIXIXIXIXIXIXIXDX-X`.2XIXIXIXIXIXIXIXIXIXIXIXIX,XJ.: . .           ",
"            . . k &X2XDXIXIXIXIXIXIXIXIXIXIXIXIXIXIXIXIXIXIXIXIXIXIXIXIXIXIXIXIXIXIXIXIXIXIXIXIXIXIXIXIXDX2X&Xk . .             ",
"            . . . v +X,XSXIXIXIXIXIXIXIXIXIXIXIXIXIXIXIXIXIXIXIXIXIXIXIXIXIXIXIXIXIXIXIXIXIXIXIXIXIXIXSX,X&XN . . .             ",
"              . . . v +X-X4XIXIXIXIXIXIXIXIXIXIXIXIXIXIXIXIXIXIXIXIXIXIXIXIXIXIXIXIXIXIXIXIXIXIXIXIX4X,X+Xv . . .               ",
"                . . . k (.-X,XSXIXIXIXIXIXIXIXIXIXIXIXIXIXIXIXIXIXIXIXIXIXIXIXIXIXIXIXIXIXIXIXIX8X,X-X(.k . . .                 ",
"                  . . . : r.-X-X,XSXIXIXIXIXIXIXIXIXIXIXIXIXIXIXIXIXIXIXIXIXIXIXIXIXIXIXIXIXSX,X-X-Xr.: . . .                   ",
"                    . . . . F (.-X-X,X4XDXIXIXIXIXIXIXIXIXIXIXIXIXIXIXIXIXIXIXIXIXIXIXDX4X,X-X-X(.A . . . .                     ",
"                        . . . & X.|.-X-X-X2X8XSXIXIXIXIXIXIXIXIXIXIXIXIXIXIXIXIXSX4X,X-X-X-X|.X.& . . .                         ",
"                          . . . . : { (.-X-X-X-X,X2X4X8XSXDXIXIXIXDXDXSX8X4X2X,X-X-X-X-XW.' : . . . .                           ",
"                              . . . . . v 3.{.-X-X-X-X-X-X-X-X-X-X-X-X-X-X-X-X-X-X`.>.z . . . . .                               ",
"                                  . . . . . . u { u.(.-X-X-X-X-X-X-X-X-X-X(.r.{ u . . . . . .                                   ",
"                                      . . . . . . . . & u B ' X.X.' B u & . . . . . . . .                                       ",
"                                            . . . . . . . . . . . . . . . . . . . .                                             ",
"                                                      . . . . . . . . . .                                                       "
};
