/* XPM */
static char *_d1967c7a57143e8e3f2bf4a9ced17cd9sJsXdlah3RVD7Fq[] = {
/* columns rows colors chars-per-pixel */
"64 64 205 2 ",
"   c None",
".  c #354A5F",
"X  c #345268",
"o  c #346179",
"O  c #E57E25",
"+  c #F19D1F",
"@  c #F29C1E",
"#  c #F29C1F",
"$  c #F29E1F",
"%  c #F29F1F",
"&  c #F1A31E",
"*  c #F1A61D",
"=  c #F1A61E",
"-  c #F1A91D",
";  c #F2A81D",
":  c #F1AD1C",
">  c #F1AF1D",
",  c #F0B31B",
"<  c #F0B61B",
"1  c #F1B11C",
"2  c #F0BA1A",
"3  c #F0BE1A",
"4  c #F0BF1A",
"5  c #E58024",
"6  c #E68025",
"7  c #E98723",
"8  c #EB8C22",
"9  c #EF9520",
"0  c #EF9521",
"q  c #F29B20",
"w  c #F29C20",
"e  c #CDBF39",
"r  c #CEBF39",
"t  c #CCBF3A",
"y  c #D1BF35",
"u  c #D1BF36",
"i  c #F3A327",
"p  c #F3A82B",
"a  c #F2AA2D",
"s  c #F2AB2F",
"d  c #F2AC2F",
"f  c #F2B221",
"g  c #EEC31B",
"h  c #EFC418",
"j  c #EFC419",
"k  c #EFC41A",
"l  c #EEC41B",
"z  c #EBC31D",
"x  c #EAC31F",
"c  c #EAC41E",
"v  c #EDC41C",
"b  c #EFC61F",
"n  c #F0C219",
"m  c #F0C319",
"M  c #F0C01A",
"N  c #F0C418",
"B  c #F0C419",
"V  c #F0C51A",
"C  c #F1C11C",
"Z  c #F0C41C",
"A  c #F0C51C",
"S  c #F1C51C",
"D  c #F0C51D",
"F  c #F1C51D",
"G  c #F0C51E",
"H  c #F1C51F",
"J  c #F0C61F",
"K  c #DDC12B",
"L  c #D7C130",
"P  c #D4C033",
"I  c #E7C322",
"U  c #E6C223",
"Y  c #E2C225",
"T  c #E3C225",
"R  c #E1C227",
"E  c #E0C228",
"W  c #F0C620",
"Q  c #F1C620",
"!  c #F1C621",
"~  c #F0C721",
"^  c #F0C622",
"/  c #B5BB4F",
"(  c #B6BC4F",
")  c #BBBC4A",
"_  c #B8BC4C",
"`  c #AEBA56",
"'  c #AFBB56",
"]  c #A7B95D",
"[  c #A6BA5D",
"{  c #A5B95E",
"}  c #A9BA5C",
"|  c #B3BB52",
" . c #B5BB50",
".. c #B4BC51",
"X. c #93B66F",
"o. c #98B76B",
"O. c #8BB577",
"+. c #8CB676",
"@. c #83B47D",
"#. c #83B47E",
"$. c #83B57F",
"%. c #85B57C",
"&. c #90B672",
"*. c #A2B961",
"=. c #C5BE41",
"-. c #C6BE40",
";. c #C2BD44",
":. c #C0BD46",
">. c #F3BE43",
",. c #F4BF45",
"<. c #F3C246",
"1. c #F3C347",
"2. c #F3C348",
"3. c #F3C449",
"4. c #F3CD53",
"5. c #F3CF54",
"6. c #F3D359",
"7. c #F3D45A",
"8. c #F3D55A",
"9. c #F2D55B",
"0. c #F3D55B",
"q. c #F2D65A",
"w. c #F4D45B",
"e. c #F4D55B",
"r. c #F3D55C",
"t. c #F2D65C",
"y. c #F3D65C",
"u. c #336D88",
"i. c #2980BA",
"p. c #2980BB",
"a. c #2983BB",
"s. c #2A83BB",
"d. c #2A84BC",
"f. c #2A85BD",
"g. c #2A86BD",
"h. c #2A87BD",
"j. c #2A8ABF",
"k. c #2A8BBF",
"l. c #2F9DBE",
"z. c #2F9DBF",
"x. c #3197B8",
"c. c #3FAABD",
"v. c #3EAABE",
"b. c #7EB383",
"n. c #7BB386",
"m. c #7AB387",
"M. c #7DB384",
"N. c #75B28B",
"B. c #76B28A",
"V. c #73B18E",
"C. c #71B28F",
"Z. c #72B28F",
"A. c #79B288",
"S. c #62AF9D",
"D. c #60AF9E",
"F. c #6FB190",
"G. c #6FB291",
"H. c #6EB192",
"J. c #65B09A",
"K. c #4FACAE",
"L. c #4FADAE",
"P. c #56AEA7",
"I. c #5CAEA2",
"U. c #5AAEA4",
"Y. c #53ADAB",
"T. c #55ADA9",
"R. c #56ADA8",
"E. c #52ADAC",
"W. c #45ABB7",
"Q. c #46ACB6",
"!. c #4BACB2",
"~. c #4AACB3",
"^. c #4DACB1",
"/. c #4EADB0",
"(. c #43ABB9",
"). c #42ABBA",
"_. c #45ABB8",
"`. c #44ACB9",
"'. c #2B8EC0",
"]. c #2B91C1",
"[. c #2C90C2",
"{. c #2C94C3",
"}. c #2D99C5",
"|. c #2E9BC6",
" X c #2EA0C8",
".X c #2EA1C9",
"XX c #2EA2C9",
"oX c #2EA3C9",
"OX c #2EA3CA",
"+X c #2FA4C8",
"@X c #2EA5CB",
"#X c #2EA7CC",
"$X c #2FA7CC",
"%X c #2FA8CC",
"&X c #36A9C5",
"*X c #3AAAC1",
"=X c #39A9C3",
"-X c #39AAC2",
";X c #3DAAC0",
":X c #33A9C8",
">X c #32A8C9",
",X c #31A9CA",
"<X c #30A8CB",
"1X c #34A9C8",
"2X c #81B481",
/* pixels */
"                                        0.0.              0.e.              0.r.            r.r.                                ",
"                        0.0.0.        0.0.0.0.        r.0.0.0.0.        0.0.0.0.0.        0.0.0.0.0.                            ",
"                        r.0.0.0.  0.0.0.0.0.0.0.r.  e.0.0.0.0.0.0.e.  e.0.0.0.0.0.e.    0.0.0.0.0.0.0.                          ",
"                        r.0.0.0.0.0.0.0.0.0.0.0.0.0.0.0.0.0.0.0.0.0.0.0.0.0.0.0.0.0.0.0.0.0.0.0.0.0.0.r.                        ",
"                        r.0.0.0.0.0.0.0.0.0.0.0.0.0.0.0.0.0.0.0.0.0.0.0.0.0.0.0.0.0.0.0.0.0.0.0.0.0.0.r.                        ",
"                        r.0.0.0.0.0.0.0.0.0.0.0.0.0.0.0.0.0.0.0.0.0.0.0.0.0.0.0.0.0.0.0.0.0.0.0.0.0.0.r.                        ",
"                        ,.>.>.>.>.>.>.>.>.>.>.>.2.0.0.0.1.>.>.>.>.>.>.>.>.>.>.>.>.>.>.>.>.>.>.>.>.>.>.,.                        ",
"                        i # # # # # # # # # # # # 3.0.1.# # # # # # # # # # # # # # # # # # # # # # # i                         ",
"                        d p p p p p p p p p p p s 5.0.4.s p p p p p p p p p p p p p p p p p s s p p p d                         ",
"                        r.0.0.0.0.0.0.0.0.0.0.0.0.0.0.0.0.0.0.0.0.0.0.0.0.0.0.0.0.0.0.0.0.0.0.r.0.0.0.r.                        ",
"                        r.0.0.0.0.0.0.0.0.0.0.0.0.0.0.0.0.0.0.0.0.0.0.0.0.0.0.0.0.0.0.0.0.0.r.r.0.0.0.r.                        ",
"                        r.0.0.0.0.0.0.0.0.0.0.0.0.0.0.0.0.0.0.0.0.0.0.0.0.0.0.0.0.0.0.0.0.0.r.r.0.0.0.6.                        ",
"                        N A A A A A A A A b ^ ^ ^ ^ ^ ^ ^ ^ ^ ^ ^ ^ ^ ^ ^ ^ ^ ^ ^ ^ b A A A A A A A C f                         ",
"                      N N N N N N N N N N N N N N N N N N N N N N N N N N N N N N N N N N N N N N N < # #                       ",
"                    N N N N N N N N N N N N N N N N N N N N N N N N N N N N N N N N N N N N N N N 4 # # # #                     ",
"                  h N N N N N N N N N N N N N N N N N N N N N N N N N N N N N N N N N N N N N N m & # # # # #                   ",
"                  N N N N N N N N N N N N N N N N N N N N N N N N N N N N N N N N N N N N N N N 1 # # # # # #                   ",
"                h N N N N N N N N N N N N N N N N N N N N N N N N N N N N N N N N N N N N N N m # # # # # # # #                 ",
"                N N N N N N N N N N N N N N N N N N N N N N N N N N N N N N N N N N N N N N N : # # # # # # # #                 ",
"              h N N N N N N N N N N N N N N N N N N N N N N N N N N N N N N N N N N N N N N m # # # # # # # # # #               ",
"              N N N N N N N N N N N N N N N N N N N N N N N N N N N N N N N N N N N N N N N < # # # # # # # # # #               ",
"              N N N N N N N N N N N N N N N N N N N N N N N N N N N N N N N N N N N N N N N - # # # # # # # # # #               ",
"            N N N N N N N N N N N N N N N N N N N N N N N N N N N N N N N N N N N N N N N m w # # # # # # # # # # w             ",
"            N N N N N N N N N N N N N N N N N N N N N N N N g u ` o.$.B.J.P.m.T N N N N N 2 w w # # q 7 8 # # # # #             ",
"            N N N N N N N N N N N N N N N N N N N N N b / Z.*X%X%X%X%X%X%X%X%XZ.N N N N N , # # # # 9 O 6 # # # # #             ",
"            N N N N N N N N N N N N N N N N N N N N ../.%X%X%X%X%X%X%X%X%X%X%X*Xg N N N N : # # # # 9 O 6 # # # # #             ",
"            N N N N N N N N N N N N N N N N N N I F.%X%X%X%X%X%X%X%X%X%X%X%X%X%XL N N N N - # # # # 9 O 6 # # # # #             ",
"            N N N N N N N N N N N N N N N N N L L.%X%X%X%X%X%X%X%X%X%X%X%X%X%X%X` N N N N - # # # # 9 O 6 # # # # #             ",
"            N N N N N N N N N N N N N N N N E ~.%X%X%X%X%X%X%X%Xl.x.%X%X%X%X%X%X+.N N N N * # # # # 9 O 6 # # # # #             ",
"            N N N N N N N N N N N N N N N x U.%X%X%X%X%X%X%X%X%XX . l.%X%X%X%X%XF.N N N N * # # # # 9 O 6 # # # # #             ",
"            N N N N N N N N N N N N N N N A.%X%X%X%X%X%X%X%X%X%Xu.o @X%X%X%X%X%XY.N N N N * # # # # 9 O 6 # # # # #             ",
"            N N N N N N N N N N N N N N ( %X%X%X%X%X%X%X%X%X%X%X%X%X%X%X%X%X%X%XQ.N N N N * # # # # 9 O 6 # # # # #             ",
"            N N N N N N N N N N N N N x W.%X%X%X%X%X%X%X%X%X%X%X%X%X%X%X%X%X%X%Xv.N N N N * # # # # 9 O 6 # # # # #             ",
"            N N N N N N N N N N N N N { %X%X%X%X%X%X%X%X%X%X%X%X%X%X%X%X%X%X%X%X~.N N N N * # # # # 9 O 6 # # # # #             ",
"            N N N N N N N N N N N N N /.%X%X%X%X%X%X%X%X%X%X%X%X%X%X%X%X%X%X%X%XU.N N N N * # # # # 9 O 6 # # # # #             ",
"            N N N N N N N N N N N N e %X%X%X%X%X%X%X%X%X%X%X%X%X%X%X%X%X%X%X%X%X$.N N N N * # # # # 9 O 6 # # # # #             ",
"            N N N N N N N N N N N N &.%X%X%X%X%X%X%X%X%X%X%X%X%X%X%X%X%X%X%X%X%X` N N N N * # # # # 9 O 6 # # # # #             ",
"            N N N N N N N N N N N N D.%X%X%X%X%X%X%X%X%X%X%X%X%X%X%X%X%X%X%X%X*XI N N N N * # # # # 9 O 6 # # # # #             ",
"            N N N N N N N N N N N N _.%X%X%X%X%X%X%X%X%X%X%X%XXX].XX%X%X%X%X%X2XN N N N N * # # # # 9 O 6 # # # # #             ",
"            N N N N N N N N N N K  .:X%X%X%X%X%X%X%X%X%X%X%XXXd.i.[.%X%X%X%X1XL N N N N N * # # # # 9 O 6 # # # # #             ",
"            N N N N N N N N ) D.%X%X%X%X%X%X%X%X%X%X%X%X$X|.i.i.i.XX%X%X%X%X&.N N N N N N * # # # # 9 O 6 # # # # #             ",
"            N N N N N N x M.%X%X%X%X%X%X%X%X%X%X%XXX|.{.d.i.i.d.XX%X%X%X%XL.c N N N N N N * # # # # 9 O 6 # # # # #             ",
"            N N N N N g Z.%X%X%X%X%X%X%X%X%X%X%XXXi.i.i.i.i.'.@X%X%X%X%X*Xe N N N N N N N * # # # # 9 O 6 # # # # #             ",
"            N N N N N &.%X%X%X%X%X%X%X%X%X%X%X%X$Xj.d.j.{.XX%X%X%X%X%X:X_ N N N N N N N N * # # # # 9 O 6 # # # # #             ",
"            N N N N u 1X%X%X%X%X%X%X%X%X%X%X%X%X%X%X%X%X%X%X%X%X%X%X&X| N N N N N N N N N * # # # # 9 O 6 # # # # #             ",
"            N N N N B.%X%X%X%X%X%X%X%X%X%X%X%X%X%X%X%X%X%X%X%X%X%X(.-.N N N N N N N N N N * # # # # 9 O 6 # # # # #             ",
"            N N N h *X%X%X%X%X%X%X%X%X%X%X%X%X%X%X%X%X%X%X%X%X:Xm.T N N N N N N N N N N N * # # # # 9 O 6 # # # # #             ",
"            N N N x %X%X%X%X%X%X%X%X%X%X%X%X%X%X%X%X%X%X%X:XF.-.N N N N N N N N N N N N N * # # # # 9 O 6 # # # # #             ",
"            N N N N T.%X%X%X%X%X%X%X%X%X%X%X%X%X%X%X%X%X%X{ N N N N N N N N N N N N N N N * # # # # 9 O 6 # # # # #             ",
"            N N N N e (.%X%X%X%X%X%X%X%X%X%X%X%X%X%X%X%X%X*.N N N N N N N N N N N N N N N * # # # # 9 O 6 # # # # #             ",
"            N N N N N I { F.T.~.I.b.) %X%X%X%X%X%X%X%X%X%X{ N N N N N N N N N N N N N N N * # # # # 9 O 6 # # # # #             ",
"            N N N N N N N N N N N N u %X%X%X%X%X%X%X%X%X%X:.N N N N N N N N N N N N N N N * # # # # 9 O 6 # # # # #             ",
"            N N N N N N N N N N N N T %X%X%X%X%X%X%X%X%X;Xc N N N N N N N N N N N N N N N * # # # # 9 O 6 # # # # #             ",
"            N N N N N N N N N N N N N `.%X%X%X%X%X%X%X%X$.N N N N N N N N N N N N N N N N * # # # # 9 O 6 # # # # #             ",
"            N N N N N N N N N N N N N $.%X%X%X%X%X%X%Xv.E N N N N N N N N N N N N N N N N * # # # # 9 O 6 # # # # #             ",
"            N N N N N N N N N N N N N u :X%X%X%X%X%X:X_ N N N N N N N N N N N N N N N N N * # # # # 9 O 6 # # # # #             ",
"            N N N N N N N N N N N N N N O.%X%X%X%X:X} N N N N N N N N N N N N N N N N N N * # # # # 9 O 6 # # # # #             ",
"            N N N N N N N N N N N N N N b %.1X%XE.:.N N N N N N N N N N N N N N N N N N N * # # # # 9 O 6 # # # # #             ",
"            N N N N N N N N N N N N N N N N U K N N N N N N N N N N N N N N N N N N N N N * # # # # 9 O 6 # # # # #             ",
"            N N N N N N N N N N N N N N N N N N N N N N N N N N N N N N N N N N N N N N N * # # # # 9 O 6 # # # # #             ",
"            N N N N N N N N N N N N N N N N N N N N N N N N N N N N N N N N N N N N N N N * # # # # 9 O 6 # # # # #             ",
"            N N N N N N N N N N N N N N N N N N N N N N N N N N N N N N N N N N N N N N N * # # # # 9 O 6 # # # # #             ",
"            N N N N N N N N N N N N N N N N N N N N N N N N N N N N N N N N N N N N N N N * w # # # 9 O 6 # # # # #             ",
"            N N N N N N N N N N N N N N N N N N N N N N N N N N N N N N N N N N N N N N 4 w # # # # 9 O 6 # # # # #             "
};
