/* XPM */
static char *_b5b60a6db7f4673d6510467f428acaeGWY5mHZX9gjrBJvu[] = {
/* columns rows colors chars-per-pixel */
"64 64 163 2 ",
"   c None",
".  c #5F266D",
"X  c #5F286F",
"o  c #5F2D73",
"O  c #5F3177",
"+  c #5F347A",
"@  c #5F3A7E",
"#  c #60276D",
"$  c #62296E",
"%  c #692E6E",
"&  c #6D316D",
"*  c #73366D",
"=  c #76396D",
"-  c #7B3C6D",
";  c #632C71",
":  c #603177",
">  c #693274",
",  c #603378",
"<  c #6F3979",
"1  c #6D3778",
"2  c #733872",
"3  c #733D7B",
"4  c #753972",
"5  c #7E4275",
"6  c #77427F",
"7  c #78437F",
"8  c #83436D",
"9  c #8C4A6D",
"0  c #88466D",
"q  c #924E6C",
"w  c #9F596C",
"e  c #9D576C",
"r  c #8E5078",
"t  c #915278",
"y  c #9D5E7C",
"u  c #864873",
"i  c #A55D6C",
"p  c #AD646C",
"a  c #B76C6C",
"s  c #B86C6C",
"d  c #AD6C7F",
"f  c #B16F7F",
"g  c #BB7171",
"h  c #C47E7E",
"j  c #5F3E82",
"k  c #5F4285",
"l  c #5F478A",
"z  c #534D94",
"x  c #50539A",
"c  c #5F5E9E",
"v  c #5F5293",
"b  c #7A4681",
"n  c #7D4983",
"m  c #665E99",
"M  c #4D5DA4",
"N  c #4B64AC",
"B  c #5F6CAA",
"V  c #5269AD",
"C  c #496AB2",
"Z  c #476EB6",
"A  c #4675BC",
"S  c #4970B7",
"D  c #5F74B1",
"F  c #5F7FBB",
"G  c #6769A3",
"H  c #6676AE",
"J  c #697FB3",
"K  c #437CC4",
"L  c #427FC8",
"P  c #814E86",
"I  c #825087",
"U  c #865489",
"Y  c #8A568A",
"T  c #8C5B8D",
"R  c #885287",
"E  c #955F8E",
"W  c #8E5F90",
"Q  c #905F91",
"!  c #926293",
"~  c #966B99",
"^  c #9B6E9A",
"/  c #9C719C",
"(  c #BA7781",
")  c #A3769F",
"_  c #AA759B",
"`  c #A577A0",
"'  c #A579A1",
"]  c #AA7DA3",
"[  c #6980B5",
"{  c #6A8DBE",
"}  c #36A4ED",
"|  c #34AAF3",
" . c #30B6FF",
".. c #37B9FF",
"X. c #3EBDFF",
"o. c #4083CC",
"O. c #5F8AC5",
"+. c #5F90CA",
"@. c #5F9AD3",
"#. c #6C96C5",
"$. c #6C98C7",
"%. c #6C9BCA",
"&. c #5FA5DC",
"*. c #5FA8DF",
"=. c #6DA1CE",
"-. c #6DA4D1",
";. c #6EA9D5",
":. c #5FADE3",
">. c #5FB0E5",
",. c #5FB5EA",
"<. c #5FBAEE",
"1. c #41BEFF",
"2. c #5FBCF0",
"3. c #46C1FF",
"4. c #49C2FF",
"5. c #5FC2F5",
"6. c #5FCDFF",
"7. c #72CAEE",
"8. c #60CDFF",
"9. c #72CCF0",
"0. c #67D1FD",
"q. c #6AD2FC",
"w. c #73D7F9",
"e. c #AD82A6",
"r. c #AA84A9",
"t. c #B58CAD",
"y. c #B886A6",
"u. c #B991AF",
"i. c #BC95B3",
"p. c #BC99B6",
"a. c #C78282",
"s. c #C98585",
"d. c #C59AB4",
"f. c #CBA5BC",
"g. c #CEA9BF",
"h. c #C3A4BE",
"j. c #D3A0B4",
"k. c #D9A7B8",
"l. c #E4B2BE",
"z. c #CCAEC4",
"x. c #D2ADC1",
"c. c #D5B1C3",
"v. c #DAB7C7",
"b. c #DDBBCA",
"n. c #DCC3D2",
"m. c #E3C1CE",
"M. c #FFCFCF",
"N. c #F6C5C9",
"B. c #ECCBD4",
"V. c #FBCED0",
"C. c #EDD8DF",
"Z. c #EED2D9",
"A. c #F1D1D7",
"S. c #FFD2D2",
"D. c #F3D4D9",
"F. c #F7D8DC",
"G. c #FADBDE",
"H. c #FCDFE0",
"J. c #F5E2E6",
"K. c #FFE2E2",
"L. c #FEE0E1",
"P. c #FFE2E2",
"I. c #FFEEED",
/* pixels */
"                                                              . .                                                               ",
"                                                        . . . . . . . .                                                         ",
"                                                      . . : G F S x o . .                                                       ",
"                                                    . . G 9.q.8.6.X.} z . .                                                     ",
"                                                  . . J w.q.6.6.6.6.X. .M . .                                                   ",
"                                                . . [ w.q.6.6.6.6.6.6.X. .N . .                                                 ",
"                                              . . [ w.q.6.6.6.6.6.6.6.6.1. .N . .                                               ",
"                                            . . { w.q.6.6.6.6.6.6.6.6.6.6.1. .N . .                                             ",
"                                          . . { w.q.6.6.6.6.<.k v 5.6.6.6.6.1. .C . .                                           ",
"                                        . . { w.q.6.6.6.6.<.j . . l 5.6.6.6.6.1. .Z . .                                         ",
"                                      . X #.w.q.6.6.6.6.,.@ . P 3 . l 5.6.6.6.6.3. .Z . .                                       ",
"                                  # . X #.w.q.6.6.6.6.,.@ . I F.B.6 . k 2.6.6.6.6.3. .A . .                                     ",
"                                . . X $.w.q.6.6.6.6.,.@ . U F.K.K.A.b . k 2.6.6.6.6.3. .A . .                                   ",
"                              . . ; %.w.0.6.6.6.6.,.@ . U F.K.K.K.K.A.b . j 2.6.6.6.6.3. .K . .                                 ",
"                            . . ; =.w.0.6.6.6.6.,.+ . T G.K.K.K.K.K.K.A.b . j <.6.6.6.6.3. .K . .                               ",
"                          # . ; -.w.0.6.6.6.6.:.O . T G.K.K.K.K.K.K.K.K.A.b . j <.6.6.6.6.4. .K . .                             ",
"                        . . o ;.w.0.6.6.6.6.:.: . Q H.K.K.K.K.K.K.K.K.K.K.A.n . @ ,.6.6.6.6.4. .L . .                           ",
"                      . . ; ;.w.0.6.6.6.6.:.O . W G.K.K.K.K.K.K.K.K.K.K.K.K.D.P . @ ,.6.6.6.6.4. .o.X .                         ",
"                    . . ; -.w.0.6.6.6.6.&.o . ! H.K.K.K.K.K.K.K.K.K.K.K.K.K.K.D.P . + >.6.6.6.6.4. .o.X .                       ",
"                  . . ; =.w.q.6.6.6.6.&.o . ! H.K.K.K.K.K.K.K.K.K.K.K.K.K.K.K.K.D.P . + >.6.6.6.6.4. .o.X .                     ",
"                . . ; -.w.0.6.6.6.6.&.o . ^ K.K.K.K.K.K.K.K.K.K.K.K.K.K.K.K.K.K.K.D.I . + >.6.6.6.6.4. .o.X .                   ",
"              . . ; =.w.0.6.6.6.6.&.o . / K.K.K.K.K.K.K.K.K.K.K.K.K.K.K.K.K.K.K.K.K.F.I . + :.6.6.6.6.4. .o.X .                 ",
"            . . X %.w.q.6.6.6.6.&.; . ^ K.K.K.K.b.I ; P c.K.K.K.K.K.K.x.P ; I b.K.K.K.G.Y . : :.6.6.6.6.4. .o.X .               ",
"            . X %.w.q.6.6.6.6.&.o . ^ K.K.K.K.A.> . . . $ f.K.K.K.K.d.# . . . > A.K.K.K.G.Y . : :.6.6.6.6.4. .o.X .             ",
"          . $ %.w.q.6.6.6.6.&.o . / K.K.K.K.K.i.. = p 9 . ; A.K.K.A.; . 9 p * . i.K.K.K.K.G.R . , :.6.6.6.6.4. .o.X .           ",
"        . X $.w.q.6.6.6.6.*.; . / I.K.K.K.K.K.` . q a a - . ] K.K.` . - a a q . ` K.K.K.K.K.N.Y . , :.6.6.6.6.3. .o.X .         ",
"      . . [ w.w.6.6.6.6.:.O . ~ I.I.K.K.K.K.K.) . q a a i . n K.K.3 . i a a 9 . ` K.K.K.K.K.S.N.Y . , :.6.6.6.6... .S . #       ",
"      . . 7.w.q.6.6.6.:.O . ~ I.I.I.K.K.K.K.K.i.. = a a a . ; K.K.$ . a a a = . d.K.K.K.K.K.S.M.N.Y . , :.6.6.6.1. .| . .       ",
"      . . 7.w.q.6.6.:.O . ~ I.I.I.I.K.K.K.K.K.D.> . w a p . 3 K.K.< . p a w . > D.K.K.K.K.K.S.M.M.N.T . O :.6.6.1. .| . .       ",
"      . . H w.w.8.:.O . . C.I.I.I.I.v.e.u.A.K.K.t.. $ 0 = . ! K.K.W . = 0 $ . t.K.K.A.u.e.b.S.M.M.M.j.. . O :.6... .C . .       ",
"        . . m { H o . . . C.I.I.I.p.# . . > b.K.K.` . . . > m.K.K.m.> . . . ` K.K.b.> . . # u.M.M.M.j.. . . o V K x . .         ",
"          . . . . . . . . C.I.I.J.; # 8 = . > B.K.K.c.` e.B.K.K.K.K.B.e.) c.K.K.B.> . = 8 # ; N.M.M.j.. . # . . . . .           ",
"              . .     . . C.I.I.b.. * a a - . ^ K.K.K.K.K.K.K.K.K.K.K.K.K.K.K.K.^ . - a a * . k.M.M.j.. .     # .               ",
"                      . . C.I.I.z.. - a a p # ; H.K.K.K.K.K.F.b.c.B.K.K.K.K.K.F.$ # p a a - . d.M.M.j.. .                       ",
"                      . . C.I.I.n.. & a a a * . b.K.K.K.F.) ; . . . n g.K.K.K.v.. * a a a & . l.M.M.j.. .                       ",
"                      . . C.I.I.I.1 . w a a * . c.K.K.D.7 . # 2 4 % . # t.K.K.v.. * a a w . > M.M.M.j.. .                       ",
"                      . . C.I.I.I.p.. % i p $ # B.K.K.T . 2 ( s.s.a.y # $ c.K.A.. $ p i % . e.M.M.M.j.. .                       ",
"                      . . C.I.I.I.P.T . . . . W K.K.f.. % ( s.s.s.s.a.9 . 6 H.K.T . . . . U V.M.M.M.j.. .                       ",
"                      . . C.I.I.I.I.H.` > $ ! D.K.G.3 . y s.s.s.s.s.g a & . t.K.D.! $ > ` G.S.M.M.M.j.. .                       ",
"                      . . C.I.I.I.I.K.K.K.H.K.K.K.t.. 2 s.s.s.s.s.h a a w . > D.K.K.H.K.K.K.S.M.M.M.j.. .                       ",
"                      . . C.I.I.I.I.K.K.K.K.K.K.H.< . d s.s.s.s.s.g a a a = . t.K.K.K.K.K.K.S.M.M.M.j.. .                       ",
"                      . . C.I.I.I.I.K.K.K.K.K.K.b.. * s.s.s.s.s.a.a a a a e . U K.K.K.K.K.K.S.M.M.M.j.. .                       ",
"                      . . C.I.I.I.I.K.K.K.K.K.K.f.. 5 s.s.s.s.s.h a a a a p . 6 K.K.K.K.K.K.S.M.M.M.j.. .                       ",
"                      . . C.I.I.I.I.K.K.K.K.K.K.v.. 2 s.s.s.s.s.a.a a a a w . U K.K.K.K.K.K.S.M.M.M.j.. .                       ",
"                      . . C.I.I.I.I.K.K.K.K.K.K.G.> . f s.s.s.s.s.g a a a - . e.K.K.K.K.K.K.S.M.M.M.j.. .                       ",
"                      . . C.I.I.I.I.K.K.K.K.K.K.K.e.. > ( s.s.s.s.h s a 9 . > B.K.K.K.K.K.K.S.M.M.M.j.. .                       ",
"                      . . C.I.I.I.I.K.K.K.K.K.K.K.H.U . $ 5 r t t t u % . $ f.K.K.K.K.K.K.K.S.M.M.M.j.. .                       ",
"                      . . C.I.h.! Z.K.i.T T T ! B.K.G.) ; . . . . . . . 6 c.K.K.K.K.K.K.K.K.S.M.M.M.j.. .                       ",
"                      . . C.I.W . z.K.U . . . . g.K.K.K.A.f.t.t.t.t.d.v.K.K.K.K.K.K.K.K.K.K.S.M.M.M.j.. .                       ",
"                      . . C.I.J.n.I.K.D.c.c.c.b.K.K.K.K.K.K.K.K.K.K.K.K.K.K.K.K.K.K.K.K.K.K.S.M.M.M.j.. .                       ",
"                      . . C.I.I.I.I.P.K.K.K.K.K.K.K.K.K.K.K.K.K.K.K.K.K.K.K.K.K.K.K.K.K.K.G.M.M.M.M.j.. .                       ",
"                  . # . . ' r.r.r.r.r.] ] ] ] ] ] ] ] ] ] ] ] ] ] ] ] ] ] ] ] ] ] ] ] ] ] _ _ _ _ _ E . . # .                   ",
"                . . . . . . . . . . . . . . . . . . . . . . . . . . . . . . . . . . . . . . . . . . . . . . . .                 ",
"                . . c F F F F F F F F F F F F F F F F F F F F F F F F F F F F F F F F F F F F F F F F F F c . .                 ",
"                . . +.6.6.6.6.6.6.6.6.6.6.6.6.6.6.6.6.6.6.6.6.6.6.6.6.6.6.6.6.6.6.6.6.6.6.6.6.6.6.6.6.6.6.+.. .                 ",
"                . . +.6.6.6.6.6.6.6.6.6.6.6.6.6.6.6.6.6.6.6.6.6.6.6.6.6.6.6.6.6.6.6.6.6.6.6.6.6.6.6.6.6.6.+.. .                 ",
"                . . c F F F F F F F F F F F F F F F F F F F F F F F F F F F F F F F F F F F F F F F F F F c . .                 ",
"          . . . . . . . . . . . . . . . . . . . . . . . . . . . . . . . . . . . . . . . . . . . . . . . . . . . . . .           ",
"          . . c D D D D D D D D D D D D D D D D D D D D D D D D D D D D D D D D D D D D D D D D D D D D D D D D c . .           ",
"          . . @.6.6.6.6.6.6.6.6.6.6.6.6.6.6.6.6.6.6.6.6.6.6.6.6.6.6.6.6.6.6.6.6.6.6.6.6.6.6.6.6.6.6.6.6.6.6.6.6.@.. .           ",
"          . . @.6.6.6.6.6.6.6.6.6.6.6.6.6.6.6.6.6.6.6.6.6.6.6.6.6.6.6.6.6.6.6.6.6.6.6.6.6.6.6.6.6.6.6.6.6.6.6.6.@.. .           ",
"          . . B O.O.O.O.O.O.O.O.O.O.O.O.O.O.O.O.O.O.O.O.O.O.O.O.O.O.O.O.O.O.O.O.O.O.O.O.O.O.O.O.O.O.O.O.O.O.O.O.B . .           ",
"          . . . . . . . . . . . . . . . . . . . . . . . . . . . . . . . . . . . . . . . . . . . . . . . . . . . . . .           ",
"            # . . . . . . . . . . . . . . . . . . . . . . . . . . . . . . . . . . . . . . . . . . . . . . . . . . #             "
};
