/* XPM */
static char *f632d030b97943faa69aab4782785ae6d7zgAeOvDE09imhq[] = {
/* columns rows colors chars-per-pixel */
"64 64 198 2 ",
"   c None",
".  c black",
"X  c #010000",
"o  c #010100",
"O  c #020101",
"+  c #030101",
"@  c #030201",
"#  c #050101",
"$  c #040201",
"%  c #050201",
"&  c #060301",
"*  c #050202",
"=  c #060202",
"-  c #060302",
";  c #080202",
":  c #080302",
">  c #090303",
",  c #0A0303",
"<  c #090403",
"1  c #0A0403",
"2  c #0B0503",
"3  c #0B0404",
"4  c #0A0504",
"5  c #0B0504",
"6  c #0C0504",
"7  c #110606",
"8  c #120706",
"9  c #130706",
"0  c #110806",
"q  c #120806",
"w  c #120807",
"e  c #130807",
"r  c #120907",
"t  c #130907",
"y  c #160807",
"u  c #140A08",
"i  c #150A08",
"p  c #180908",
"a  c #190A08",
"s  c #190B09",
"d  c #1B0A09",
"f  c #1F0A0A",
"g  c #1B0C09",
"h  c #1B0C0A",
"j  c #1C0C0A",
"k  c #1C0D0A",
"l  c #1D0D0A",
"z  c #1C0D0B",
"x  c #1C0E0B",
"c  c #1D0E0B",
"v  c #260E0C",
"b  c #24100D",
"n  c #27130F",
"m  c #291410",
"M  c #2C1410",
"N  c #2E1410",
"B  c #2F1712",
"V  c #311310",
"C  c #361210",
"Z  c #321612",
"A  c #371511",
"S  c #381412",
"D  c #391612",
"F  c #3A1612",
"G  c #371813",
"H  c #371914",
"J  c #351A14",
"K  c #381914",
"L  c #391A15",
"P  c #3B1A15",
"I  c #3E1B16",
"U  c #3A1C16",
"Y  c #3B1D16",
"T  c #3C1D17",
"R  c #3F1C16",
"E  c #3D1E17",
"W  c #3E1E17",
"Q  c #3F1E17",
"!  c #3F1E18",
"~  c #431915",
"^  c #401C17",
"/  c #401F18",
"(  c #411F18",
")  c #4D1D18",
"_  c #4E1D18",
"`  c #412019",
"'  c #44211A",
"]  c #4F231C",
"[  c #53201A",
"{  c #52251D",
"}  c #56261E",
"|  c #59221C",
" . c #65211E",
".. c #60241E",
"X. c #542920",
"o. c #5A2820",
"O. c #582A21",
"+. c #582B22",
"@. c #662D24",
"#. c #672E24",
"$. c #6B2922",
"%. c #6C2922",
"&. c #6D2922",
"*. c #6E2A23",
"=. c #6B2F26",
"-. c #722622",
";. c #732623",
":. c #762A25",
">. c #742C24",
",. c #7A2E26",
"<. c #7B2E27",
"1. c #753429",
"2. c #77352A",
"3. c #7F3028",
"4. c #79362B",
"5. c #78372B",
"6. c #7A362B",
"7. c #7C372C",
"8. c #7E362C",
"9. c #73382C",
"0. c #78382C",
"q. c #7F3B2F",
"w. c #7C3C2F",
"e. c #7D3D2F",
"r. c #7E3D30",
"t. c #7F3E30",
"y. c #813129",
"u. c #84322A",
"i. c #8F362D",
"p. c #863C2F",
"a. c #93382E",
"s. c #813D30",
"d. c #803E31",
"f. c #813F31",
"g. c #823F31",
"h. c #833F32",
"j. c #9F3530",
"k. c #983A30",
"l. c #9A3A31",
"z. c #9B3B31",
"x. c #A13D33",
"c. c #A53E34",
"v. c #A93833",
"b. c #AA3833",
"n. c #AF3E36",
"m. c #BF3F39",
"M. c #864133",
"N. c #944234",
"B. c #9F4738",
"V. c #9E4C3C",
"C. c #AA4036",
"Z. c #AC4136",
"A. c #AE4237",
"S. c #A5493A",
"D. c #A6493A",
"F. c #B14338",
"G. c #B24338",
"H. c #B44439",
"J. c #B54539",
"K. c #BC473B",
"L. c #BD483C",
"P. c #C0493D",
"I. c #C2493D",
"U. c #C34A3D",
"Y. c #C74B3F",
"T. c #A95240",
"R. c #AF5542",
"E. c #B55040",
"W. c #B05543",
"Q. c #B45744",
"!. c #B95241",
"~. c #BA5342",
"^. c #BB5443",
"/. c #BA5A47",
"(. c #BF5946",
"). c #CC4D40",
"_. c #CD4E41",
"`. c #CE4E41",
"'. c #C05947",
"]. c #C85947",
"[. c #C15D49",
"{. c #C35D49",
"}. c #D15D4A",
"|. c #D75F4C",
" X c #DC5F4C",
".X c #C5604B",
"XX c #C6604B",
"oX c #DA614D",
"OX c #DD624E",
"+X c #DF644F",
"@X c #DB6A53",
"#X c #DE6B54",
"$X c #E16651",
"%X c #E46953",
"&X c #E46A54",
"*X c #E76E56",
"=X c #EA7259",
"-X c #EB7259",
/* pixels */
"  . . . . . . . . . . . . =       1 . . . . . . . . . . . . . . . . . . . . . . . . . . . . 1       = . . . . . . . . . . . .   ",
". . g g g g g g c c c c c . V ).3.. . . 0 g g g c c c c c c c c c c c c c c c c c c c c c 0 . 3.).V . g g g g g g c c c c c . . ",
". g OXOXOXOXOX&X-X-X-X-X-Xc . )._ . B.OXOXOXOX+X-X-X-X-X-X-X-X-X-X-X-X-X-X-X-X-X-X-X-X-X-XW.. _ ).. g OXOXOXOXOX%X-X-X-X-X-Xc . ",
". g OXOXOXOXOX&X-X-X-X-X-Xc . )._ . D.OXOXOXOX+X-X-X-X-X-X-X-X-X-X-X-X-X-X-X-X-X-X-X-X-X-XW.. _ ).. g OXOXOXOXOX%X-X-X-X-X-Xc . ",
". g OXOXOXOXOX&X-X-X-X-X-Xc . )._ . D.OXOXOXOX+X-X-X-X-X-X-X-X-X-X-X-X-X-X-X-X-X-X-X-X-X-XW.. _ ).. g OXOXOXOXOX%X-X-X-X-X-Xc . ",
"= N OXOXOXOXOX&X-X-X-X-X-Xc . )._ . D.OXOXOXOX+X-X-X-X-X-X-X-X-X-X-X-X-X-X-X-X-X-X-X-X-X-XW.. _ ).. g OXOXOXOXOX%X-X-X-X-X-Xc . ",
"  ].OXOXOXOXOX&X-X-X-X-X-Xc . )._ . D.OXOXOXOX+X-X-X-X-X-X-X-X-X-X-X-X-X-X-X-X-X-X-X-X-X-XW.. _ ).. g OXOXOXOXOX%X-X-X-X-X-Xc . ",
"  OXOXOXOXOXOX&X-X-X-X-X-Xc . )._ . D.OXOXOXOX+X-X-X-X-X-X-X-X-X-X-X-X-X-X-X-X-X-X-X-X-X-XW.. _ ).. g OXOXOXOXOX%X-X-X-X-X-Xc . ",
"  |.OXOXOXOXOX&X-X-X-X-X-Xc . )._ . D.OXOXOXOX+X-X-X-X-X-X-X-X-X-X-X-X-X-X-X-X-X-X-X-X-X-XW.. _ ).. g OXOXOXOXOX%X-X-X-X-X-Xc . ",
"1 H OXOXOXOXOX&X-X-X-X-X-Xc . )._ . D.OXOXOXOX+X-X-X-X-X-X-X-X-X-X-X-X-X-X-X-X-X-X-X-X-X-XW.. _ ).. g OXOXOXOXOX%X-X-X-X-X-Xc . ",
". g OXOXOXOXOX&X-X-X-X-X-Xc . )._ . D.OXOXOXOX+X-X-X-X-X-X-X-X-X-X-X-X-X-X-X-X-X-X-X-X-X-XW.. _ ).. g OXOXOXOXOX%X-X-X-X-X-Xc . ",
". g OXOXOXOXOX&X-X-X-X-X-Xc . )._ . D.OXOXOXOX+X-X-X-X-X-X-X-X-X-X-X-X-X-X-X-X-X-X-X-X-X-XW.. _ ).. g OXOXOXOXOX%X-X-X-X-X-Xc . ",
". g OXOXOXOXOX&X-X-X-X-X-Xc . )._ . D.OXOXOXOX+X-X-X-X-X-X-X-X-X-X-X-X-X-X-X-X-X-X-X-X-X-XW.. _ ).. c OXOXOXOXOX%X-X-X-X-X-Xc . ",
"; . G G G G G K U U U U U . v ).>.. b G G G G G U U U U U U U U U U U U U U U U U U U U U b . >.).v . G G G G G K U U U U U . = ",
"  y . . . . . . . . . . . a a.).I.A . . . . . . . . . . . . . . . . . . . . . . . . . . . . A I.).a.a . . . . . . . . . . . a   ",
"  m.b.b.b.b.b.n.H.H.H.H.H.).).).).).L.H.H.H.H.H.H.H.H.H.H.H.H.H.H.H.H.H.H.H.H.H.H.H.H.H.H.L.).).).).).H.H.H.H.H.H.H.H.H.H.H.).  ",
"   .C C C C C F F F F F F F F F F F F F F F F F F F F F F | F.).).F.| F F F F F F F F F F F F F F F F F F F F F F F F F F F $.  ",
"7 . . . . . . . . . . . . . . . . . . . . . . . . . . . . . a ).).a . . . . . . . . . . . . . . . . . . . . . . . . . . . . . ; ",
". 0 N.D.E.~.~.'.XXXXXXXXXXXXXXXXXXXXXXXXXXXXXXXXXXXXXXXXXX' . x.x.. ^ ~.~.~.~.~.[.XXXXXXXXXXXXXXXXXXXXXXXXXXXXXXXXXXXX[.R.V.0 . ",
". g OXOXOXOXOX&X-X-X-X-X-X-X-X-X-X-X-X-X-X-X-X-X-X-X-X-X-XO.. l.l.. { OXOXOXOXOX*X-X-X-X-X-X-X-X-X-X-X-X-X-X-X-X-X-X-X-X-X-Xc . ",
". g OXOXOXOXOX&X-X-X-X-X-X-X-X-X-X-X-X-X-X-X-X-X-X-X-X-X-XO.. l.l.. { OXOXOXOXOX*X-X-X-X-X-X-X-X-X-X-X-X-X-X-X-X-X-X-X-X-X-Xc . ",
". g OXOXOXOXOX&X-X-X-X-X-X-X-X-X-X-X-X-X-X-X-X-X-X-X-X-X-XO.. l.l.. { OXOXOXOXOX*X-X-X-X-X-X-X-X-X-X-X-X-X-X-X-X-X-X-X-X-X-Xc . ",
". g OXOXOXOXOX&X-X-X-X-X-X-X-X-X-X-X-X-X-X-X-X-X-X-X-X-X-XO.. l.l.. { OXOXOXOXOX*X-X-X-X-X-X-X-X-X-X-X-X-X-X-X-X-X-X-X-X-X-Xc . ",
". g OXOXOXOXOX&X-X-X-X-X-X-X-X-X-X-X-X-X-X-X-X-X-X-X-X-X-XO.. l.l.. { OXOXOXOXOX*X-X-X-X-X-X-X-X-X-X-X-X-X-X-X-X-X-X-X-X-X-Xc . ",
". g OXOXOXOXOX&X-X-X-X-X-X-X-X-X-X-X-X-X-X-X-X-X-X-X-X-X-XO.. l.l.. { OXOXOXOXOX*X-X-X-X-X-X-X-X-X-X-X-X-X-X-X-X-X-X-X-X-X-Xc . ",
". g OXOXOXOXOX&X-X-X-X-X-X-X-X-X-X-X-X-X-X-X-X-X-X-X-X-X-XO.. l.l.. { OXOXOXOXOX*X-X-X-X-X-X-X-X-X-X-X-X-X-X-X-X-X-X-X-X-X-Xc . ",
". g OXOXOXOXOX&X-X-X-X-X-X-X-X-X-X-X-X-X-X-X-X-X-X-X-X-X-XO.. l.l.. { OXOXOXOXOX*X-X-X-X-X-X-X-X-X-X-X-X-X-X-X-X-X-X-X-X-X-Xc . ",
". g OXOXOXOXOX&X-X-X-X-X-X-X-X-X-X-X-X-X-X-X-X-X-X-X-X-X-XO.. l.l.. { OXOXOXOXOX*X-X-X-X-X-X-X-X-X-X-X-X-X-X-X-X-X-X-X-X-X-Xc . ",
". g OXOXOXOXOX&X-X-X-X-X-X-X-X-X-X-X-X-X-X-X-X-X-X-X-X-X-XO.. l.l.. { OXOXOXOXOX*X-X-X-X-X-X-X-X-X-X-X-X-X-X-X-X-X-X-X-X-X-Xc . ",
"= 1 } @.2.7.7.q.f.f.f.f.f.f.f.f.f.f.f.f.r.r.r.r.r.r.e.e.e.m . A.A.. c O.=.6.7.7.f.f.f.f.f.f.f.f.f.f.f.f.f.r.r.r.r.r.r.e.e.e.4 . ",
"f . . . . . . . . . . . . . . . . . . . . . . . . . . . . . F ).).F . . . . . . . . . . . . . . . . . . . . . . . . . . . . . 7 ",
"  j.-.-.-.-.-.:.,.,.,.,.,.,.,.,.,.,.,.,.,.,.,.,.,.,.,.,.,.l.).).).).l.,.,.,.,.,.,.,.,.,.,.,.,.,.,.,.,.,.,.,.,.,.,.,.,.,.,.,.C.  ",
"  j.-.-.-.-.-.:.,.,.,.,.,.A.).).).I.u.,.,.,.,.,.,.,.,.,.,.,.,.,.,.,.,.,.,.y.I.).).c.,.,.,.u.I.).).).A.,.,.,.,.,.,.,.,.,.,.,.C.  ",
"f . . . . . . . . . . . . . %.).F.1 . . . . . . . . . . . . . . . . . . . . 7. X Xc . . . . ; F.).%.. . . . . . . . . . . . . 7 ",
"= 4 2.2.2.2.2.0.e.e.e.e.e.4 7 ).... W @.6.7.7.7.f.f.f.f.f.f.f.r.r.r.r.e.e.M.@X-X-XQ.e.e.e.O.. ..).7 4 2.2.2.2.2.6.e.e.e.e.e.4 . ",
". g OXOXOXOXOX&X-X-X-X-X-Xc . )._ . D.OXOXOXOX+X-X-X-X-X-X-X-X-X-X-X-X-X-X-X-X-X-X-X-X-X-XW.. _ ).. g OXOXOXOXOX%X-X-X-X-X-Xc . ",
". g OXOXOXOXOX&X-X-X-X-X-Xc . )._ . D.OXOXOXOX+X-X-X-X-X-X-X-X-X-X-X-X-X-X-X-X-X-X-X-X-X-XW.. _ ).. g OXOXOXOXOX%X-X-X-X-X-Xc . ",
". g OXOXOXOXOX&X-X-X-X-X-Xc . )._ . D.OXOXOXOX+X-X-X-X-X-X-X-X-X-X-X-X-X-X-X-X-X-X-X-X-X-XW.. _ ).. g OXOXOXOXOX%X-X-X-X-X-Xc . ",
". g OXOXOXOXOX&X-X-X-X-X-Xc . )._ . D.OXOXOXOX+X-X-X-X-X-X-X-X-X-X-X-X-X-X-X-X-X-X-X-X-X-XW.. _ ).. g OXOXOXOXOX%X-X-X-X-X-Xc . ",
". g OXOXOXOXOX&X-X-X-X-X-Xc . )._ . D.OXOXOXOX+X-X-X-X-X-X-X-X-X-X-X-X-X-X-X-X-X-X-X-X-X-XW.. _ ).. g OXOXOXOXOX%X-X-X-X-X-Xc . ",
". g OXOXOXOXOX&X-X-X-X-X-Xc . )._ . D.OXOXOXOX+X-X-X-X-X-X-X-X-X-X-X-X-X-X-X-X-X-X-X-X-X-XW.. _ ).. g OXOXOXOXOX%X-X-X-X-X-Xc . ",
". g OXOXOXOXOX&X-X-X-X-X-Xc . )._ . D.OXOXOXOX+X-X-X-X-X-X-X-X-X-X-X-X-X-X-X-X-X-X-X-X-X-XW.. _ ).. g OXOXOXOXOX%X-X-X-X-X-Xc . ",
". g OXOXOXOXOX&X-X-X-X-X-Xc . )._ . D.OXOXOXOX+X-X-X-X-X-X-X-X-X-X-X-X-X-X-X-X-X-X-X-X-X-XW.. _ ).. g OXOXOXOXOX%X-X-X-X-X-Xc . ",
". g OXOXOXOXOX&X-X-X-X-X-Xc . )._ . D.OXOXOXOX+X-X-X-X-X-X-X-X-X-X-X-X-X-X-X-X-X-X-X-X-X-XW.. _ ).. g OXOXOXOXOX%X-X-X-X-X-Xc . ",
". g OXOXOXOXOX&X-X-X-X-X-Xc . )._ . D.OXOXOXOX+X-X-X-X-X-X-X-X-X-X-X-X-X-X-X-X-X-X-X-X-X-XW.. _ ).. g OXOXOXOXOX%X-X-X-X-X-Xc . ",
". 0 ~.~.~.~.~.'.XXXXXXXXXX0 = ).[ . p.~.~.~.~.^.XXXXXXXXXXXXXXXXXXXXXXXXXXXXXXXXXXXXXX/.T.9.. [ ).= 0 ~.~.~.~.~.(.XXXXXXXXXXi . ",
"7 . . . . . . . . . . . . . _ ).l.. . . . . . . . . . . . . . . . . . . . . . . . . . . . . . l.)._ . . . . . . . . . . . . . ; ",
"   .C C C C C F F F F F F %.I.).).i.~ F F F F F F F F F F F F F F F F F F F F F F F F F F ~ i.).).I.%.F F F F F F F F F F F $.  ",
"  m.b.b.b.b.b.n.H.H.H.H.H.H.H.H.H.H.H.H.H.H.H.H.H.H.H.H.H.Y.).).).).Y.H.H.H.H.H.H.H.H.H.H.H.H.H.H.H.H.H.H.H.H.H.H.H.H.H.H.H.).  ",
"  y . . . . . . . . . . . . . . . . . . . . . . . . . . . 4 %.).).%.4 . . . . . . . . . . . . . . . . . . . . . . . . . . . a   ",
"; . G H H K K K W W W W W W ! ! ! / / / / / / ` ` ` ! N c = = K.K.= = c N K I I W / / / / / / ! ! ! W W W W W W W W W U U U . = ",
". g OXOXOXOXOX&X-X-X-X-X-X-X-X-X-X-X-X-X-X-X-X-X-X-X-X-X-XO.. l.l.. { OXOXOXOXOX*X-X-X-X-X-X-X-X-X-X-X-X-X-X-X-X-X-X-X-X-X-Xc . ",
". g OXOXOXOXOX&X-X-X-X-X-X-X-X-X-X-X-X-X-X-X-X-X-X-X-X-X-XO.. l.l.. { OXOXOXOXOX*X-X-X-X-X-X-X-X-X-X-X-X-X-X-X-X-X-X-X-X-X-Xc . ",
". g OXOXOXOXOX&X-X-X-X-X-X-X-X-X-X-X-X-X-X-X-X-X-X-X-X-X-XO.. l.l.. { OXOXOXOXOX*X-X-X-X-X-X-X-X-X-X-X-X-X-X-X-X-X-X-X-X-X-Xc . ",
". g OXOXOXOXOX&X-X-X-X-X-X-X-X-X-X-X-X-X-X-X-X-X-X-X-X-X-XO.. l.l.. { OXOXOXOXOX*X-X-X-X-X-X-X-X-X-X-X-X-X-X-X-X-X-X-X-X-X-Xc . ",
". g OXOXOXOXOX&X-X-X-X-X-X-X-X-X-X-X-X-X-X-X-X-X-X-X-X-X-XO.. l.l.. { OXOXOXOXOX*X-X-X-X-X-X-X-X-X-X-X-X-X-X-X-X-X-X-X-X-X-Xc . ",
". g OXOXOXOXOX&X-X-X-X-X-X-X-X-X-X-X-X-X-X-X-X-X-X-X-X-X-XO.. l.l.. { OXOXOXOXOX*X-X-X-X-X-X-X-X-X-X-X-X-X-X-X-X-X-X-X-X-X-Xc . ",
". g OXOXOXOXOX&X-X-X-X-X-X-X-X-X-X-X-X-X-X-X-X-X-X-X-X-X-XO.. l.l.. { OXOXOXOXOX*X-X-X-X-X-X-X-X-X-X-X-X-X-X-X-X-X-X-X-X-X-Xc . ",
". g OXOXOXOXOX&X-X-X-X-X-X-X-X-X-X-X-X-X-X-X-X-X-X-X-X-X-XO.. l.l.. { OXOXOXOXOX*X-X-X-X-X-X-X-X-X-X-X-X-X-X-X-X-X-X-X-X-X-Xc . ",
". g OXOXOXOXOX&X-X-X-X-X-X-X-X-X-X-X-X-X-X-X-X-X-X-X-X-X-XO.. l.l.. { OXOXOXOXOX*X-X-X-X-X-X-X-X-X-X-X-X-X-X-X-X-X-X-X-X-X-Xc . ",
". g OXOXOXOXOX&X-X-X-X-X-X-X-X-X-X-X-X-X-X-X-X-X-X-X-X-X-XO.. l.l.. { OXOXOXOXOX*X-X-X-X-X-X-X-X-X-X-X-X-X-X-X-X-X-X-X-X-X-Xc . ",
". g OXOXOXOXOX&X-X-X-X-X-X-X-X-X-X-X-X-X-X-X-X-X-X-X-X-X-XX.. l.l.. ] oXOXOXOXOX*X-X-X-X-X-X-X-X-X-X-X-X-X-X-X-X-X-X-X-X-X-Xc . ",
". . g g g Z }.$X#XH c c c c c c c c c c c c c c c c c i = . 1 I.I.1 . . 6 a g g c c c c c c c c c c c c c c c c c c c c c c . . ",
"  . . . . ;       = . . . . . . . . . . . . . . . . . . . .         = . . . . . . . . . . . . . . . . . . . . . . . . . . . .   "
};
